<svg xmlns="http://www.w3.org/2000/svg" xmlns:xlink="http://www.w3.org/1999/xlink" width="500" zoomAndPan="magnify" viewBox="0 0 375 374.999991" height="500" preserveAspectRatio="xMidYMid meet" version="1.0"><defs><g/></defs><g fill="#9b7e5c" fill-opacity="1"><g transform="translate(52.227632, 202.028497)"><g><path d="M 32.234375 -13.09375 C 28.421875 -7.9375 23.171875 -2.59375 21.984375 -2.59375 C 21.671875 -2.59375 21.53125 -2.796875 21.671875 -3.390625 C 21.90625 -4.546875 22.46875 -6.71875 23.171875 -9.234375 C 23.875 -9.171875 24.609375 -9.03125 25.375 -8.921875 C 26.453125 -8.75 27.515625 -11.3125 26.28125 -11.4375 C 25.40625 -11.546875 24.609375 -11.65625 23.828125 -11.71875 C 25.125 -16.453125 26.59375 -21.671875 27.1875 -23.65625 C 27.6875 -25.515625 23.796875 -27.1875 22.921875 -25.96875 C 20.296875 -22.609375 15.6875 -17.109375 11.34375 -12.046875 C 4.03125 -11.515625 -1.6875 -8.40625 -1.6875 -4.65625 C -1.6875 -2.0625 0.171875 0 2.09375 0 C 3.4375 0 4.859375 -0.8125 6.15625 -2.453125 C 7.3125 -3.84375 9.6875 -6.6875 12.421875 -9.90625 C 14.390625 -9.9375 16.28125 -9.9375 18.375 -9.765625 C 17.609375 -7.0625 16.875 -4.65625 16.234375 -2.875 C 15.78125 -1.578125 18.03125 0.34375 19.984375 0.34375 C 23.234375 0.34375 29.015625 -6.125 33.5 -12.21875 Z M 14.203125 -12.046875 C 16.734375 -15.015625 19.359375 -18.171875 21.421875 -20.609375 C 20.65625 -17.953125 19.84375 -14.9375 19.046875 -12.078125 C 17.25 -12.140625 15.71875 -12.109375 14.203125 -12.046875 Z M 4.171875 -3.921875 C 3.5 -3.109375 2.6875 -2.625 2.0625 -2.65625 C 1.359375 -2.734375 0.84375 -3.5625 0.84375 -4.765625 C 0.84375 -6.828125 4.375 -9.34375 9.484375 -9.90625 C 7.53125 -7.625 5.671875 -5.5625 4.171875 -3.921875 Z M 4.171875 -3.921875 "/></g></g></g><g fill="#9b7e5c" fill-opacity="1"><g transform="translate(78.96159, 202.028497)"><g><path d="M 44.171875 -13.09375 C 39.765625 -7.0625 34.71875 -2.59375 33.5625 -2.59375 C 33.21875 -2.59375 33.140625 -2.90625 33.3125 -3.21875 C 34.796875 -6.296875 38.109375 -12.8125 41.71875 -18.96875 C 42.484375 -20.265625 40.046875 -22.71875 38.21875 -22.71875 C 36.1875 -22.71875 31.046875 -18.828125 27.1875 -13.796875 C 28.59375 -16.375 29.953125 -18.90625 31.21875 -21.0625 C 31.984375 -22.40625 29.609375 -24.8125 27.796875 -24.8125 C 25.796875 -24.8125 21.03125 -20.828125 16.28125 -14.8125 C 18.03125 -18.0625 19.640625 -21.03125 20.890625 -23.3125 C 21.453125 -24.25 19.3125 -25.859375 17.84375 -25.90625 C 10.53125 -25.90625 6.125 -22.78125 6.125 -19.078125 C 6.125 -14.90625 10.015625 -15.40625 9.734375 -16.28125 C 9.59375 -16.765625 9.453125 -17.53125 9.453125 -18.34375 C 9.453125 -21.140625 12.59375 -23.484375 16.171875 -24.015625 C 13.4375 -18.484375 7.109375 -6.546875 4.6875 -2.375 C 3.671875 -0.671875 7.875 1.296875 8.8125 -0.5625 C 9.59375 -2.0625 10.359375 -3.609375 11.171875 -5.140625 C 16.484375 -14.34375 23.453125 -20.796875 24.921875 -20.796875 C 25.515625 -20.796875 25.796875 -20.328125 25.40625 -19.53125 C 24.609375 -17.609375 19.21875 -7.734375 16.234375 -2.59375 C 15.296875 -0.984375 19.671875 1.078125 20.234375 -0.109375 C 20.859375 -1.40625 21.5625 -2.875 22.328125 -4.40625 C 27.578125 -13.71875 33.640625 -18.6875 35.421875 -18.6875 C 35.984375 -18.6875 36.21875 -18.203125 35.90625 -17.46875 C 35.109375 -15.5 29.71875 -5.8125 28 -2.9375 C 27.265625 -1.640625 29.546875 0.34375 31.390625 0.34375 C 34.515625 0.34375 39.859375 -4.625 45.4375 -12.21875 Z M 44.171875 -13.09375 "/></g></g></g><g fill="#9b7e5c" fill-opacity="1"><g transform="translate(117.59287, 202.028497)"><g><path d="M 23.484375 -13.09375 C 18.828125 -6.890625 13.75 -2 8.5 -2 C 5.78125 -2 4.578125 -3.46875 4.65625 -5.3125 C 4.765625 -8.265625 7.984375 -12.3125 12 -12.3125 C 13.328125 -12.3125 13.890625 -14.59375 12.5625 -14.59375 C 10.640625 -14.59375 9.90625 -15.46875 9.90625 -16.734375 C 9.9375 -19.5625 14.171875 -23 17.1875 -23 C 18.375 -23 19 -22.1875 19 -21.28125 C 19 -20.1875 18.203125 -19.078125 16.453125 -17.75 C 15.265625 -16.875 17.78125 -13.9375 18.796875 -14.84375 C 20.265625 -16.140625 21.875 -18.65625 21.875 -20.578125 C 21.875 -23.375 18.71875 -26.28125 15.78125 -26.28125 C 10.4375 -26.28125 5.1875 -21.171875 5.1875 -17.1875 C 5.1875 -15.640625 6.09375 -14.53125 7.3125 -13.71875 C 2.96875 -12.1875 0.03125 -8.921875 -0.109375 -5.5625 C -0.25 -1.890625 3.328125 0.34375 7.59375 0.34375 C 13.859375 0.34375 19.109375 -4.484375 24.75 -12.21875 Z M 23.484375 -13.09375 "/></g></g></g><g fill="#9b7e5c" fill-opacity="1"><g transform="translate(135.438843, 202.028497)"><g><path d="M 31.296875 -13.09375 C 26.5 -6.1875 22.953125 -2.5625 21.84375 -2.5625 C 21.53125 -2.5625 21.34375 -2.6875 21.25 -3.21875 C 20.578125 -5.78125 20.40625 -8.609375 20.265625 -10.671875 C 23.9375 -11.578125 28.25 -14.671875 28.25 -19.25 C 28.25 -23.203125 24.953125 -26.3125 18.265625 -26.3125 C 10.21875 -26.3125 5.109375 -21.203125 5.109375 -16.34375 C 5.109375 -13.328125 9.796875 -12.1875 9.484375 -13.515625 C 9.375 -14.0625 9.203125 -15.046875 9.203125 -16.0625 C 9.203125 -20.234375 12.734375 -24.25 17.4375 -24.25 C 21.5625 -24.359375 23.625 -22.1875 23.625 -19.078125 C 23.625 -14.0625 18.484375 -12.671875 16.140625 -12.3125 C 15.921875 -12.140625 15.78125 -11.859375 15.78125 -11.515625 L 15.78125 -11.4375 C 15.921875 -9.3125 15.921875 -5.3125 16.515625 -1.890625 C 16.734375 -0.53125 18.234375 0.3125 20.375 0.3125 C 22.71875 0.3125 26.703125 -3.890625 32.546875 -12.21875 Z M 15.359375 -21.765625 C 13.125 -17.078125 7.8125 -7.109375 5.1875 -2.59375 C 4.171875 -0.875 8.359375 1.078125 9.3125 -0.765625 C 13.46875 -9.03125 16.34375 -14.484375 19.359375 -19.875 C 20.09375 -21.203125 16.203125 -23.484375 15.359375 -21.765625 Z M 15.359375 -21.765625 "/></g></g></g><g fill="#9b7e5c" fill-opacity="1"><g transform="translate(161.298003, 202.028497)"><g><path d="M 10.390625 -18.203125 C 10.25 -18.6875 10.21875 -19.140625 10.21875 -19.8125 C 10.21875 -22.359375 13.890625 -23.96875 18.765625 -23.96875 C 23.171875 -23.96875 26.640625 -22.8125 29.5 -20.546875 C 30.875 -19.5625 33.421875 -23.96875 31.890625 -24.5 C 28.53125 -25.625 24.15625 -26.28125 19.78125 -26.28125 C 11.203125 -26.28125 7 -23.5625 7 -20.40625 C 7 -16.9375 10.671875 -17.078125 10.390625 -18.203125 Z M 11.515625 -0.5625 C 15.6875 -8.78125 18.828125 -14.8125 21.84375 -20.1875 C 22.578125 -21.53125 18.6875 -23.796875 17.890625 -22.078125 C 15.609375 -17.390625 10.015625 -6.890625 7.421875 -2.375 C 6.375 -0.671875 10.5625 1.296875 11.515625 -0.5625 Z M 11.515625 -0.5625 "/></g></g></g><g fill="#9b7e5c" fill-opacity="1"><g transform="translate(180.963563, 202.028497)"><g><path d="M 32.234375 -13.09375 C 28.421875 -7.9375 23.171875 -2.59375 21.984375 -2.59375 C 21.671875 -2.59375 21.53125 -2.796875 21.671875 -3.390625 C 21.90625 -4.546875 22.46875 -6.71875 23.171875 -9.234375 C 23.875 -9.171875 24.609375 -9.03125 25.375 -8.921875 C 26.453125 -8.75 27.515625 -11.3125 26.28125 -11.4375 C 25.40625 -11.546875 24.609375 -11.65625 23.828125 -11.71875 C 25.125 -16.453125 26.59375 -21.671875 27.1875 -23.65625 C 27.6875 -25.515625 23.796875 -27.1875 22.921875 -25.96875 C 20.296875 -22.609375 15.6875 -17.109375 11.34375 -12.046875 C 4.03125 -11.515625 -1.6875 -8.40625 -1.6875 -4.65625 C -1.6875 -2.0625 0.171875 0 2.09375 0 C 3.4375 0 4.859375 -0.8125 6.15625 -2.453125 C 7.3125 -3.84375 9.6875 -6.6875 12.421875 -9.90625 C 14.390625 -9.9375 16.28125 -9.9375 18.375 -9.765625 C 17.609375 -7.0625 16.875 -4.65625 16.234375 -2.875 C 15.78125 -1.578125 18.03125 0.34375 19.984375 0.34375 C 23.234375 0.34375 29.015625 -6.125 33.5 -12.21875 Z M 14.203125 -12.046875 C 16.734375 -15.015625 19.359375 -18.171875 21.421875 -20.609375 C 20.65625 -17.953125 19.84375 -14.9375 19.046875 -12.078125 C 17.25 -12.140625 15.71875 -12.109375 14.203125 -12.046875 Z M 4.171875 -3.921875 C 3.5 -3.109375 2.6875 -2.625 2.0625 -2.65625 C 1.359375 -2.734375 0.84375 -3.5625 0.84375 -4.765625 C 0.84375 -6.828125 4.375 -9.34375 9.484375 -9.90625 C 7.53125 -7.625 5.671875 -5.5625 4.171875 -3.921875 Z M 4.171875 -3.921875 "/></g></g></g><g fill="#9b7e5c" fill-opacity="1"><g transform="translate(207.697521, 202.028497)"><g/></g></g><g fill="#9b7e5c" fill-opacity="1"><g transform="translate(215.115844, 202.028497)"><g><path d="M 32.09375 -13.09375 C 28.421875 -8.078125 22.921875 -2.59375 21.59375 -2.59375 C 21.25 -2.59375 21.0625 -2.828125 21.34375 -3.46875 C 22.953125 -7 29.75 -19.8125 31.8125 -23.3125 C 32.6875 -24.890625 28.453125 -26.921875 27.859375 -25.625 C 26.59375 -22.921875 24.671875 -19.078125 22.640625 -15.1875 C 19.59375 -15.125 17.671875 -14.9375 15.75 -14.625 C 17.609375 -18.125 19.390625 -21.453125 20.40625 -23.203125 C 21.171875 -24.46875 18.6875 -25.90625 17.359375 -25.90625 C 10.046875 -25.90625 6.234375 -22.5 6.234375 -19.359375 C 6.234375 -15.4375 10.078125 -15.890625 9.796875 -16.796875 C 9.65625 -17.296875 9.515625 -18.125 9.515625 -19.078125 C 9.515625 -20.859375 12.28125 -23.375 15.75 -23.96875 C 13.859375 -20.125 12.453125 -17.4375 10.5625 -13.890625 C 4.546875 -12.421875 -0.53125 -8.125 -0.53125 -3.84375 C -0.53125 -2.234375 3.078125 0.5625 5.53125 0.5625 C 7.28125 0.53125 8.40625 -0.421875 9.484375 -2.59375 C 10.359375 -4.34375 12.28125 -8.046875 14.3125 -11.90625 C 16.34375 -12.140625 18.34375 -12.28125 21.0625 -12.25 C 19.140625 -8.640625 17.296875 -5.25 15.921875 -2.9375 C 15.21875 -1.71875 17.5625 0.34375 19.53125 0.34375 C 22.890625 0.34375 29.15625 -6.46875 33.359375 -12.21875 Z M 5.25 -4.203125 C 4.6875 -3.328125 4.0625 -2.875 3.4375 -2.875 C 2.65625 -2.875 2 -3.390625 2 -4.171875 C 1.953125 -6.65625 5.046875 -9.515625 8.921875 -10.953125 C 7.703125 -8.71875 6.40625 -6.296875 5.25 -4.203125 Z M 5.25 -4.203125 "/></g></g></g><g fill="#9b7e5c" fill-opacity="1"><g transform="translate(241.674844, 202.028497)"><g><path d="M 17.46875 -25.90625 C 10.15625 -25.90625 6.125 -22.921875 6.125 -19.25 C 6.125 -15.078125 10.015625 -15.546875 9.6875 -16.421875 C 9.5625 -16.9375 9.421875 -17.703125 9.421875 -18.484375 C 9.421875 -21.34375 12.359375 -23.59375 15.921875 -24.046875 C 13.6875 -19.640625 12.3125 -16.875 9.9375 -12.5625 C 4.203125 -11.375 -0.875 -8.125 -0.875 -4.34375 C -0.875 -2.234375 2.96875 0.5625 5.671875 0.5625 C 7.421875 0.5625 8.546875 -0.421875 9.625 -2.59375 C 11.34375 -6.09375 18.3125 -19.3125 20.546875 -23.203125 C 21.3125 -24.46875 18.828125 -25.859375 17.46875 -25.90625 Z M 5.359375 -4.203125 C 4.828125 -3.328125 4.203125 -2.875 3.53125 -2.875 C 2.796875 -2.875 1.578125 -3.640625 1.578125 -4.6875 C 1.578125 -7.203125 4.96875 -9.515625 8.921875 -10.640625 C 7.671875 -8.4375 6.40625 -6.09375 5.359375 -4.203125 Z M 5.359375 -4.203125 "/></g></g></g><g fill="#9b7e5c" fill-opacity="1"><g transform="translate(255.671688, 202.028497)"><g><path d="M 21 -13.09375 C 18.578125 -9.765625 15.296875 -7.171875 12.1875 -6.015625 C 15.46875 -12.28125 19.359375 -19.84375 21.3125 -23.203125 C 22.046875 -24.46875 19.5625 -25.90625 18.234375 -25.90625 C 10.890625 -25.90625 6.328125 -22.5 6.328125 -18.34375 C 6.328125 -14.171875 10.21875 -14.625 9.9375 -15.546875 C 9.796875 -16.03125 9.65625 -16.875 9.65625 -18.09375 C 9.65625 -21 12.984375 -23.453125 16.65625 -24.015625 C 14.171875 -19.046875 10.390625 -11.90625 6.65625 -4.96875 C 0.3125 -3.984375 -5.84375 -0.171875 -5.875 3.25 C -5.875 5.5 -3.046875 8.078125 -0.28125 8.046875 C 2.03125 8.046875 4.71875 6.4375 6.96875 3.328125 C 7.671875 2.34375 9.203125 -0.453125 11.0625 -3.953125 C 15.609375 -5.140625 19.28125 -8.21875 22.265625 -12.21875 Z M 2.828125 1.46875 C 1.15625 3.53125 -0.8125 4.625 -2 4.578125 C -2.828125 4.578125 -3.609375 3.984375 -3.5625 3.046875 C -3.5 1.078125 0.5625 -1.8125 5.53125 -3.015625 C 4.859375 -1.640625 4.171875 -0.34375 2.828125 1.46875 Z M 2.828125 1.46875 "/></g></g></g><g fill="#9b7e5c" fill-opacity="1"><g transform="translate(271.17319, 202.028497)"><g><path d="M 32.234375 -13.09375 C 28.421875 -7.9375 23.171875 -2.59375 21.984375 -2.59375 C 21.671875 -2.59375 21.53125 -2.796875 21.671875 -3.390625 C 21.90625 -4.546875 22.46875 -6.71875 23.171875 -9.234375 C 23.875 -9.171875 24.609375 -9.03125 25.375 -8.921875 C 26.453125 -8.75 27.515625 -11.3125 26.28125 -11.4375 C 25.40625 -11.546875 24.609375 -11.65625 23.828125 -11.71875 C 25.125 -16.453125 26.59375 -21.671875 27.1875 -23.65625 C 27.6875 -25.515625 23.796875 -27.1875 22.921875 -25.96875 C 20.296875 -22.609375 15.6875 -17.109375 11.34375 -12.046875 C 4.03125 -11.515625 -1.6875 -8.40625 -1.6875 -4.65625 C -1.6875 -2.0625 0.171875 0 2.09375 0 C 3.4375 0 4.859375 -0.8125 6.15625 -2.453125 C 7.3125 -3.84375 9.6875 -6.6875 12.421875 -9.90625 C 14.390625 -9.9375 16.28125 -9.9375 18.375 -9.765625 C 17.609375 -7.0625 16.875 -4.65625 16.234375 -2.875 C 15.78125 -1.578125 18.03125 0.34375 19.984375 0.34375 C 23.234375 0.34375 29.015625 -6.125 33.5 -12.21875 Z M 14.203125 -12.046875 C 16.734375 -15.015625 19.359375 -18.171875 21.421875 -20.609375 C 20.65625 -17.953125 19.84375 -14.9375 19.046875 -12.078125 C 17.25 -12.140625 15.71875 -12.109375 14.203125 -12.046875 Z M 4.171875 -3.921875 C 3.5 -3.109375 2.6875 -2.625 2.0625 -2.65625 C 1.359375 -2.734375 0.84375 -3.5625 0.84375 -4.765625 C 0.84375 -6.828125 4.375 -9.34375 9.484375 -9.90625 C 7.53125 -7.625 5.671875 -5.5625 4.171875 -3.921875 Z M 4.171875 -3.921875 "/></g></g></g><g fill="#9b7e5c" fill-opacity="1"><g transform="translate(297.907137, 202.028497)"><g><path d="M 28.25 -19.5 C 28.25 -23.421875 25.125 -26.3125 18.625 -26.3125 C 10.296875 -26.3125 5.109375 -21.203125 5.109375 -16.34375 C 5.109375 -13.328125 9.796875 -12.1875 9.484375 -13.515625 C 9.375 -14.0625 9.203125 -15.046875 9.203125 -16.0625 C 9.203125 -20.234375 12.8125 -24.25 17.78125 -24.25 C 21.8125 -24.359375 23.625 -22.46875 23.625 -20.09375 C 23.625 -16.65625 20.609375 -14.03125 15.953125 -13.65625 C 17.15625 -15.859375 18.234375 -17.921875 19.359375 -19.875 C 20.09375 -21.203125 16.203125 -23.484375 15.359375 -21.765625 C 13.125 -17.078125 7.625 -6.796875 5 -2.28125 C 4.375 -1.21875 5.78125 -0.109375 7.109375 0.28125 C 6.46875 1.046875 7.28125 2.765625 10.015625 2.765625 C 17.5 2.765625 23.90625 -0.90625 23.90625 -7.140625 C 23.90625 -9.5625 22.640625 -11.203125 20.828125 -12.1875 C 24.8125 -13.15625 28.25 -15.75 28.25 -19.5 Z M 8.953125 -0.109375 C 11.375 -4.90625 13.40625 -8.78125 15.21875 -12.25 C 15.328125 -12.21875 15.4375 -12.1875 15.578125 -12.1875 C 15.78125 -12.078125 16.03125 -11.96875 16.28125 -11.9375 C 18.203125 -11.203125 19.3125 -9.96875 19.3125 -7.703125 C 19.3125 -2.3125 14.3125 -0.3125 8.953125 -0.109375 Z M 8.953125 -0.109375 "/></g></g></g></svg>