<svg width="50" height="50" viewBox="0 0 50 50" fill="none" xmlns="http://www.w3.org/2000/svg">
<path d="M43.143 24.6157L40.8613 21.263C40.559 20.7873 40.1507 20.3882 39.6683 20.0967C39.1859 19.8053 38.6426 19.6296 38.0809 19.5833C38.4447 19.1529 38.7039 18.6441 38.8383 18.0968C38.9727 17.5496 38.9786 16.9786 38.8555 16.4286L38.1016 12.4443C38.0758 12.309 38.0098 12.1847 37.9122 12.0875C37.8147 11.9904 37.6901 11.9249 37.5547 11.8997L33.5703 11.1458C33.0204 11.0225 32.4494 11.0283 31.902 11.1627C31.3547 11.297 30.8459 11.5564 30.4156 11.9204C30.3696 11.3586 30.1939 10.8152 29.9025 10.3327C29.611 9.85018 29.2118 9.44179 28.736 9.13956L25.3844 6.85831C25.2711 6.78103 25.1372 6.73969 25 6.73969C24.8629 6.73969 24.7289 6.78103 24.6156 6.85831L21.2629 9.14074C20.7873 9.44304 20.3881 9.85139 20.0967 10.3338C19.8052 10.8162 19.6295 11.3595 19.5832 11.9212C19.1529 11.5572 18.6442 11.2979 18.0968 11.1635C17.5495 11.0291 16.9785 11.0233 16.4285 11.1466L12.4442 11.9005C12.3092 11.9261 12.1851 11.9917 12.088 12.0889C11.9909 12.186 11.9252 12.3101 11.8996 12.445L11.1457 16.4294C11.0226 16.9793 11.0285 17.5502 11.1629 18.0974C11.2973 18.6447 11.5565 19.1534 11.9203 19.5837C11.3586 19.6299 10.8152 19.8056 10.3327 20.0971C9.85022 20.3885 9.44181 20.7877 9.13947 21.2634L6.85822 24.6153C6.78072 24.7285 6.73926 24.8625 6.73926 24.9997C6.73926 25.1369 6.78072 25.2709 6.85822 25.3841L9.13947 28.7368C9.44187 29.2125 9.8503 29.6116 10.3328 29.903C10.8152 30.1945 11.3586 30.3702 11.9203 30.4165C11.5565 30.8469 11.2973 31.3557 11.1629 31.903C11.0285 32.4503 11.0226 33.0213 11.1457 33.5712L11.8996 37.5556C11.9252 37.6905 11.9909 37.8146 12.088 37.9118C12.1851 38.0089 12.3092 38.0745 12.4442 38.1001L16.4285 38.854C16.6974 38.9053 16.9704 38.9314 17.2442 38.9321C18.1013 38.9479 18.9342 38.6466 19.5828 38.086C19.6295 38.6472 19.8055 39.1899 20.0969 39.6717C20.3883 40.1536 20.7872 40.5614 21.2625 40.8634L24.6145 43.1446C24.7277 43.222 24.8617 43.2634 24.9988 43.2634C25.136 43.2634 25.27 43.222 25.3832 43.1446L28.736 40.863C29.2112 40.5611 29.6102 40.1534 29.9016 39.6716C30.193 39.1898 30.3689 38.6472 30.4156 38.086C31.064 38.6477 31.897 38.95 32.7547 38.9349C33.0285 38.9342 33.3017 38.908 33.5707 38.8568L37.5551 38.1028C37.6904 38.0776 37.815 38.0122 37.9126 37.915C38.0102 37.8179 38.0762 37.6936 38.102 37.5583L38.8559 33.5739C38.979 33.024 38.9731 32.4531 38.8387 31.9059C38.7043 31.3587 38.4451 30.85 38.0813 30.4196C38.643 30.3734 39.1864 30.1977 39.6689 29.9063C40.1514 29.6149 40.5598 29.2157 40.8621 28.74L43.1434 25.388C43.2216 25.2744 43.2634 25.1397 43.2633 25.0018C43.2633 24.8639 43.2213 24.7293 43.143 24.6157ZM33.3203 12.4884L36.8465 13.1556L37.5117 16.6798C37.6015 17.0424 37.6007 17.4215 37.5096 17.7837C37.4185 18.1459 37.2397 18.4802 36.9891 18.7571L36.1774 19.5704H30.4297V13.8228L31.241 13.011C31.5181 12.7599 31.8527 12.5809 32.2153 12.4897C32.578 12.3986 32.9575 12.3981 33.3203 12.4884ZM24.0332 31.7114L20.9375 34.8095V30.4298H22.752L24.0332 31.7114ZM25.9668 18.2888L29.0625 15.1907V19.5704H27.2481L25.9668 18.2888ZM30.7442 25.0001L29.2629 26.4818C29.1347 26.6099 29.0626 26.7837 29.0625 26.965V29.0626H26.9649C26.7836 29.0627 26.6098 29.1348 26.4817 29.263L25 30.7443L23.5184 29.263C23.3902 29.1348 23.2164 29.0627 23.0352 29.0626H20.9375V26.965C20.9374 26.7837 20.8653 26.6099 20.7371 26.4818L19.2578 25.0001L20.7391 23.5185C20.8666 23.39 20.9379 23.2163 20.9375 23.0353V20.9376H23.0352C23.2164 20.9375 23.3902 20.8654 23.5184 20.7372L25 19.2579L26.4817 20.7392C26.6098 20.8674 26.7836 20.9395 26.9649 20.9396H29.0625V23.0372C29.0626 23.2185 29.1347 23.3923 29.2629 23.5204L30.7442 25.0001ZM22.752 19.5704H20.9375V15.1907L24.0332 18.2888L22.752 19.5704ZM19.5703 22.7521L18.2887 24.0333L15.1906 20.9376H19.5703V22.7521ZM18.2887 25.9669L19.5703 27.2482V29.0626H15.1906L18.2887 25.9669ZM27.2481 30.4298H29.0625V34.8095L25.9668 31.7114L27.2481 30.4298ZM30.4297 27.2482L31.7113 25.9669L34.8094 29.0626H30.4297V27.2482ZM31.7113 24.0333L30.4297 22.7521V20.9376H34.8094L31.7113 24.0333ZM22.0313 10.2681L25 8.24894L27.966 10.2677C28.285 10.4607 28.5518 10.729 28.743 11.0491C28.9342 11.3692 29.0439 11.7313 29.0625 12.1036V13.2548L25 17.322L20.9375 13.2568V12.1056C20.9556 11.7332 21.0648 11.371 21.2555 11.0506C21.4462 10.7302 21.7126 10.4616 22.0313 10.2681ZM12.4883 16.6818L13.1555 13.1556L16.6797 12.4884C17.0423 12.3983 17.4214 12.3989 17.7837 12.49C18.146 12.5812 18.4803 12.7601 18.757 13.011L19.5703 13.8228V19.5704H13.8227L13.011 18.7587C12.7603 18.4818 12.5816 18.1476 12.4905 17.7854C12.3993 17.4233 12.3986 17.0443 12.4883 16.6818ZM10.268 27.9689L8.24884 25.0001L10.2676 22.0341C10.4606 21.7151 10.7289 21.4483 11.049 21.2571C11.3691 21.066 11.7312 20.9563 12.1035 20.9376H13.2547L17.3219 25.0001L13.2567 29.0626H12.1055C11.7331 29.0445 11.3709 28.9353 11.0505 28.7446C10.7301 28.5539 10.4615 28.2875 10.268 27.9689ZM16.6817 37.5118L13.1555 36.8446L12.4883 33.3204C12.3986 32.9578 12.3993 32.5788 12.4904 32.2165C12.5816 31.8543 12.7603 31.52 13.011 31.2431L13.8227 30.4298H19.5703V36.1775L18.7586 36.9892C18.4818 37.24 18.1476 37.4188 17.7854 37.5099C17.4232 37.6011 17.0442 37.6017 16.6817 37.5118ZM27.9688 39.7321L25 41.7513L22.034 39.7325C21.715 39.5396 21.4482 39.2713 21.257 38.9512C21.0659 38.6311 20.9562 38.269 20.9375 37.8966V36.7435L25 32.6782L29.0625 36.7435V37.8946C29.0444 38.267 28.9352 38.6293 28.7445 38.9496C28.5538 39.27 28.2874 39.5387 27.9688 39.7321ZM37.5117 33.3204L36.8445 36.8462L33.3203 37.5118C32.9577 37.6018 32.5785 37.6012 32.2162 37.51C31.8538 37.4189 31.5195 37.24 31.2426 36.9892L30.4297 36.1775V30.4298H36.1774L36.9891 31.2415C37.24 31.5186 37.4189 31.8532 37.51 32.2157C37.6011 32.5782 37.6017 32.9576 37.5117 33.3204ZM39.7324 27.9689C39.5395 28.2879 39.2712 28.5546 38.9511 28.7458C38.631 28.937 38.2689 29.0467 37.8965 29.0653H36.7434L32.6781 25.0001L36.7434 20.9376H37.8945C38.2667 20.956 38.6286 21.0653 38.9486 21.256C39.2687 21.4467 39.5372 21.7129 39.7305 22.0314L41.7496 25.0001L39.7324 27.9689Z" fill="#414141"/>
</svg>
